<?xml version="1.0" encoding="UTF-8"?>
<svg id="g-circles-scroll-Artboard_2-minor-plumbing-img" xmlns="http://www.w3.org/2000/svg" baseProfile="tiny" version="1.2" viewBox="0 0 600 606.505">
  <!-- Generator: Adobe Illustrator 29.1.0, SVG Export Plug-In . SVG Version: 2.1.0 Build 142)  -->
  <path id="p_905.3145150029063" d="M309.732,544.719c-44.797.003-81.115-36.31-81.118-81.108-.003-44.797,36.31-81.115,81.108-81.118h.01c44.797-.003,81.115,36.31,81.118,81.108.003,44.797-36.31,81.115-81.108,81.118h-.01Z" fill="none" stroke="#cbcbcb"/>
  <path id="p_833.5479362330682" d="M285.087,496.556c-18.334,0-33.196-14.862-33.196-33.196s14.862-33.196,33.196-33.196,33.196,14.862,33.196,33.196-14.862,33.196-33.196,33.196Z" fill="#9eb2d4"/>
  <path id="p_890.6953511714536" d="M348.346,491.298c-15.43,0-27.939-12.509-27.939-27.939s12.509-27.939,27.939-27.939,27.939,12.509,27.939,27.939-12.509,27.939-27.939,27.939Z" fill="#9eb2d4"/>
  <path id="p_907.4395702682375" d="M322.743,535.806c-13.493,0-24.432-10.938-24.432-24.432s10.938-24.432,24.432-24.432,24.432,10.938,24.432,24.432-10.938,24.432-24.432,24.432Z" fill="#9eb2d4"/>
  <path id="p_814.1659048641333" d="M321.52,440.776c-12.964,0-23.473-10.509-23.473-23.473s10.509-23.473,23.473-23.473,23.473,10.509,23.473,23.473-10.509,23.473-23.473,23.473Z" fill="#9eb2d4"/>
  <path id="p_759.8634284212169" d="M279.384,429.268c-9.901,0-17.928-8.027-17.928-17.928s8.027-17.928,17.928-17.928,17.928,8.027,17.928,17.928-8.027,17.928-17.928,17.928Z" fill="#9eb2d4"/>
  <path id="p_862.7391494016606" d="M277.829,533.499c-9.901,0-17.928-8.027-17.928-17.928s8.027-17.928,17.928-17.928,17.928,8.027,17.928,17.928-8.027,17.928-17.928,17.928Z" fill="#9eb2d4"/>
  <path id="p_846.880686316166" d="M360.3,435.43c-7.485,0-13.552-6.068-13.552-13.552s6.068-13.552,13.552-13.552,13.552,6.068,13.552,13.552-6.068,13.552-13.552,13.552Z" fill="#9eb2d4"/>
  <path id="p_910.1568227636502" d="M352.873,506.473c-3.742,0-6.776-3.034-6.776-6.776s3.034-6.776,6.776-6.776,6.776,3.034,6.776,6.776-3.034,6.776-6.776,6.776Z" fill="#9eb2d4"/>
<style>
#g-circles-scroll-Artboard_2-minor-plumbing-img rect, #g-circles-scroll-Artboard_2-minor-plumbing-img circle, #g-circles-scroll-Artboard_2-minor-plumbing-img path, #g-circles-scroll-Artboard_2-minor-plumbing-img line, #g-circles-scroll-Artboard_2-minor-plumbing-img polyline, #g-circles-scroll-Artboard_2-minor-plumbing-img polygon { vector-effect: non-scaling-stroke; }
</style>
</svg>
