<?xml version="1.0" encoding="UTF-8"?>
<svg id="g-circles-scroll-Artboard_2-top-three-img" xmlns="http://www.w3.org/2000/svg" baseProfile="tiny" version="1.2" viewBox="0 0 600 606.505">
  <!-- Generator: Adobe Illustrator 29.1.0, SVG Export Plug-In . SVG Version: 2.1.0 Build 142)  -->
  <g id="PAINT_x2F_PLASTER">
    <path id="p_682.9685663296325" d="M211.582,410.083c-53.005,0-95.974-42.969-95.974-95.974s42.969-95.974,95.974-95.974,95.974,42.969,95.974,95.974-42.969,95.974-95.974,95.974Z" fill="#ff9ebf"/>
  </g>
  <g id="UNSANITARY_CONDITION">
    <path id="p_880.9479166042868" d="M402.105,406.801c-51.192,0-92.692-41.5-92.692-92.692s41.5-92.692,92.692-92.692,92.692,41.5,92.692,92.692-41.5,92.692-92.692,92.692Z" fill="#b68b70"/>
  </g>
  <g id="PLUMBING">
    <path id="p_929.3000891367416" d="M309.898,544.738c-44.797.008-81.119-36.302-81.127-81.099-.008-44.797,36.302-81.119,81.099-81.127h.028c44.797-.008,81.119,36.302,81.127,81.099.008,44.797-36.302,81.119-81.099,81.127h-.028Z" fill="#9eb2d4"/>
  </g>
<style>
#g-circles-scroll-Artboard_2-top-three-img rect, #g-circles-scroll-Artboard_2-top-three-img circle, #g-circles-scroll-Artboard_2-top-three-img path, #g-circles-scroll-Artboard_2-top-three-img line, #g-circles-scroll-Artboard_2-top-three-img polyline, #g-circles-scroll-Artboard_2-top-three-img polygon { vector-effect: non-scaling-stroke; }
</style>
</svg>
