<?xml version="1.0" encoding="UTF-8"?>
<svg id="g-circles-scroll-Artboard_2-minor-unsanitary-img" xmlns="http://www.w3.org/2000/svg" baseProfile="tiny" version="1.2" viewBox="0 0 600 606.505">
  <!-- Generator: Adobe Illustrator 29.1.0, SVG Export Plug-In . SVG Version: 2.1.0 Build 142)  -->
  <path id="p_864.689992681845" d="M401.948,407.186c-51.415,0-93.095-41.68-93.095-93.095s41.68-93.095,93.095-93.095,93.095,41.68,93.095,93.095-41.68,93.095-93.095,93.095Z" fill="none" stroke="#cbcbcb"/>
  <path id="p_790.0010928730143" d="M366.878,370.186c-30.981.003-56.097-25.11-56.1-56.091-.003-30.981,25.11-56.097,56.091-56.1h.009c30.981-.003,56.097,25.11,56.1,56.091.003,30.981-25.11,56.097-56.091,56.1h-.009Z" fill="#b68b70"/>
  <path id="p_862.8101027583865" d="M458.891,348.366c-18.929,0-34.275-15.345-34.275-34.275s15.345-34.275,34.275-34.275,34.275,15.345,34.275,34.275-15.345,34.275-34.275,34.275Z" fill="#b68b70"/>
  <path id="p_854.4458153020211" d="M395.151,398.36c-8.763,0-15.866-7.104-15.866-15.866s7.104-15.866,15.866-15.866,15.866,7.104,15.866,15.866-7.104,15.866-15.866,15.866Z" fill="#b68b70"/>
  <path id="p_770.6278146212809" d="M425.537,276.105c-5.059,0-9.161-4.1-9.162-9.159,0-5.059,4.1-9.161,9.159-9.162h.003c5.059,0,9.161,4.1,9.162,9.159,0,5.059-4.1,9.161-9.159,9.162h-.003Z" fill="#b68b70"/>
<style>
#g-circles-scroll-Artboard_2-minor-unsanitary-img rect, #g-circles-scroll-Artboard_2-minor-unsanitary-img circle, #g-circles-scroll-Artboard_2-minor-unsanitary-img path, #g-circles-scroll-Artboard_2-minor-unsanitary-img line, #g-circles-scroll-Artboard_2-minor-unsanitary-img polyline, #g-circles-scroll-Artboard_2-minor-unsanitary-img polygon { vector-effect: non-scaling-stroke; }
</style>
</svg>
