<?xml version="1.0" encoding="UTF-8"?>
<svg id="g-circles-scroll-Artboard_1-minor-plumbing-img" xmlns="http://www.w3.org/2000/svg" baseProfile="tiny" version="1.2" viewBox="0 0 1200 1200">
  <!-- Generator: Adobe Illustrator 29.1.0, SVG Export Plug-In . SVG Version: 2.1.0 Build 142)  -->
  <path id="p_905.3145150029063" d="M614.291,962.189c-67.276.004-121.817-54.53-121.821-121.806-.004-67.276,54.53-121.817,121.806-121.821h.015c67.276-.004,121.817,54.53,121.821,121.806.004,67.276-54.53,121.817-121.806,121.821h-.015Z" fill="none" stroke="#cbcbcb"/>
  <path id="p_833.5479362330682" d="M577.28,889.858c-27.533,0-49.853-22.32-49.853-49.853s22.32-49.853,49.853-49.853,49.853,22.32,49.853,49.853-22.32,49.853-49.853,49.853Z" fill="#9eb2d4"/>
  <path id="p_890.6953511714536" d="M672.281,881.962c-23.173,0-41.958-18.785-41.958-41.958s18.785-41.958,41.958-41.958,41.958,18.785,41.958,41.958-18.785,41.958-41.958,41.958Z" fill="#9eb2d4"/>
  <path id="p_907.4395702682375" d="M633.831,948.804c-20.264,0-36.691-16.427-36.691-36.691s16.427-36.691,36.691-36.691,36.691,16.427,36.691,36.691-16.427,36.691-36.691,36.691Z" fill="#9eb2d4"/>
  <path id="p_814.1659048641333" d="M631.995,806.089c-19.469,0-35.252-15.783-35.252-35.252s15.783-35.252,35.252-35.252,35.252,15.783,35.252,35.252-15.783,35.252-35.252,35.252Z" fill="#9eb2d4"/>
  <path id="p_759.8634284212169" d="M568.716,788.806c-14.87,0-26.924-12.054-26.924-26.924s12.054-26.924,26.924-26.924,26.924,12.054,26.924,26.924-12.054,26.924-26.924,26.924Z" fill="#9eb2d4"/>
  <path id="p_862.7391494016606" d="M566.381,945.338c-14.87,0-26.924-12.054-26.924-26.924s12.054-26.924,26.924-26.924,26.924,12.054,26.924,26.924-12.054,26.924-26.924,26.924Z" fill="#9eb2d4"/>
  <path id="p_846.880686316166" d="M690.234,798.06c-11.24,0-20.353-9.112-20.353-20.353s9.112-20.353,20.353-20.353,20.353,9.112,20.353,20.353-9.112,20.353-20.353,20.353Z" fill="#9eb2d4"/>
  <path id="p_910.1568227636502" d="M679.081,904.752c-5.62,0-10.176-4.556-10.176-10.176s4.556-10.176,10.176-10.176,10.176,4.556,10.176,10.176-4.556,10.176-10.176,10.176Z" fill="#9eb2d4"/>
<style>
#g-circles-scroll-Artboard_1-minor-plumbing-img rect, #g-circles-scroll-Artboard_1-minor-plumbing-img circle, #g-circles-scroll-Artboard_1-minor-plumbing-img path, #g-circles-scroll-Artboard_1-minor-plumbing-img line, #g-circles-scroll-Artboard_1-minor-plumbing-img polyline, #g-circles-scroll-Artboard_1-minor-plumbing-img polygon { vector-effect: non-scaling-stroke; }
</style>
</svg>
