<?xml version="1.0" encoding="UTF-8"?>
<svg id="g-circles-scroll-Artboard_1-top-three-img" xmlns="http://www.w3.org/2000/svg" baseProfile="tiny" version="1.2" viewBox="0 0 1200 1200">
  <!-- Generator: Adobe Illustrator 29.1.0, SVG Export Plug-In . SVG Version: 2.1.0 Build 142)  -->
  <g id="PAINT_x2F_PLASTER">
    <path id="p_682.9685663296325" d="M466.892,759.995c-79.602,0-144.132-64.53-144.132-144.132s64.53-144.132,144.132-144.132,144.132,64.53,144.132,144.132-64.53,144.132-144.132,144.132Z" fill="#ff9ebf"/>
  </g>
  <g id="UNSANITARY_CONDITION">
    <path id="p_880.9479166042868" d="M753.015,755.066c-76.88,0-139.203-62.323-139.203-139.203s62.323-139.203,139.203-139.203,139.203,62.323,139.203,139.203-62.323,139.203-139.203,139.203Z" fill="#b68b70"/>
  </g>
  <g id="PLUMBING">
    <path id="p_929.3000891367416" d="M614.541,962.217c-67.276.011-121.823-54.517-121.834-121.793-.011-67.276,54.517-121.823,121.793-121.834h.042c67.276-.011,121.823,54.517,121.834,121.793.011,67.276-54.517,121.823-121.793,121.834h-.042Z" fill="#9eb2d4"/>
  </g>
<style>
#g-circles-scroll-Artboard_1-top-three-img rect, #g-circles-scroll-Artboard_1-top-three-img circle, #g-circles-scroll-Artboard_1-top-three-img path, #g-circles-scroll-Artboard_1-top-three-img line, #g-circles-scroll-Artboard_1-top-three-img polyline, #g-circles-scroll-Artboard_1-top-three-img polygon { vector-effect: non-scaling-stroke; }
</style>
</svg>
