<?xml version="1.0" encoding="UTF-8"?>
<svg id="g-circles-scroll-Artboard_1-minor-unsanitary-img" xmlns="http://www.w3.org/2000/svg" baseProfile="tiny" version="1.2" viewBox="0 0 1200 1200">
  <!-- Generator: Adobe Illustrator 29.1.0, SVG Export Plug-In . SVG Version: 2.1.0 Build 142)  -->
  <path id="p_864.689992681845" d="M752.781,755.644c-77.214,0-139.809-62.594-139.809-139.809s62.594-139.809,139.809-139.809,139.809,62.594,139.809,139.809-62.594,139.809-139.809,139.809Z" fill="none" stroke="#cbcbcb"/>
  <path id="p_790.0010928730143" d="M700.113,700.078c-46.526.004-84.246-37.71-84.25-84.236-.004-46.526,37.71-84.246,84.236-84.25h.014c46.526-.004,84.246,37.71,84.25,84.236.004,46.526-37.71,84.246-84.236,84.25h-.014Z" fill="#b68b70"/>
  <path id="p_862.8101027583865" d="M838.296,667.309c-28.428,0-51.473-23.045-51.473-51.473s23.045-51.473,51.473-51.473,51.473,23.045,51.473,51.473-23.045,51.473-51.473,51.473Z" fill="#b68b70"/>
  <path id="p_854.4458153020211" d="M742.572,742.389c-13.16,0-23.827-10.668-23.827-23.827s10.668-23.827,23.827-23.827,23.827,10.668,23.827,23.827-10.668,23.827-23.827,23.827Z" fill="#b68b70"/>
  <path id="p_770.6278146212809" d="M788.205,558.789c-7.598.001-13.758-6.157-13.759-13.755-.001-7.598,6.157-13.758,13.755-13.759h.004c7.598-.001,13.758,6.157,13.759,13.755.001,7.598-6.157,13.758-13.755,13.759h-.004Z" fill="#b68b70"/>
<style>
#g-circles-scroll-Artboard_1-minor-unsanitary-img rect, #g-circles-scroll-Artboard_1-minor-unsanitary-img circle, #g-circles-scroll-Artboard_1-minor-unsanitary-img path, #g-circles-scroll-Artboard_1-minor-unsanitary-img line, #g-circles-scroll-Artboard_1-minor-unsanitary-img polyline, #g-circles-scroll-Artboard_1-minor-unsanitary-img polygon { vector-effect: non-scaling-stroke; }
</style>
</svg>
