<?xml version="1.0" encoding="UTF-8"?>
<svg id="g-circles-scroll-Artboard_2-minor-paint-img" xmlns="http://www.w3.org/2000/svg" baseProfile="tiny" version="1.2" viewBox="0 0 600 606.505">
  <!-- Generator: Adobe Illustrator 29.1.0, SVG Export Plug-In . SVG Version: 2.1.0 Build 142)  -->
  <path id="p_670.1562911682141" d="M211.508,409.919c-52.959,0-95.891-42.932-95.891-95.891s42.932-95.891,95.891-95.891,95.891,42.932,95.891,95.891-42.932,95.891-95.891,95.891Z" fill="none" stroke="#cbcbcb"/>
  <path id="p_571.6134878774152" d="M166.505,363.165c-27.138.004-49.141-21.994-49.145-49.132-.004-27.138,21.994-49.141,49.132-49.145h.013c27.138-.004,49.141,21.994,49.145,49.132.004,27.138-21.994,49.141-49.132,49.145h-.013Z" fill="#ff9ebf"/>
  <path id="p_668.2764012447556" d="M261.521,358.155c-24.371.005-44.132-19.747-44.137-44.118-.005-24.371,19.747-44.132,44.118-44.137h.019c24.371-.005,44.132,19.747,44.137,44.118.005,24.371-19.747,44.132-44.118,44.137h-.019Z" fill="#ff9ebf"/>
  <path id="p_622.6913922474281" d="M215.952,371.25c-5.97,0-10.809-4.839-10.809-10.809s4.839-10.809,10.809-10.809,10.809,4.839,10.809,10.809-4.839,10.809-10.809,10.809Z" fill="#ff9ebf"/>
  <path id="p_548.3992201048823" d="M218.751,285.732c-4.874,0-8.826-3.95-8.827-8.824,0-4.874,3.95-8.826,8.824-8.827h.003c4.874,0,8.826,3.95,8.827,8.824,0,4.874-3.95,8.826-8.824,8.827h-.003Z" fill="#ff9ebf"/>
  <g id="WINDOW_x2F_FRAME">
    <path id="p_518.985133279655" d="M198.647,269.511c-4.874,0-8.826-3.95-8.827-8.824,0-4.874,3.95-8.826,8.824-8.827h.003c4.874,0,8.826,3.95,8.827,8.824,0,4.874-3.95,8.826-8.824,8.827h-.003Z" fill="#ff9ebf"/>
  </g>
<style>
#g-circles-scroll-Artboard_2-minor-paint-img rect, #g-circles-scroll-Artboard_2-minor-paint-img circle, #g-circles-scroll-Artboard_2-minor-paint-img path, #g-circles-scroll-Artboard_2-minor-paint-img line, #g-circles-scroll-Artboard_2-minor-paint-img polyline, #g-circles-scroll-Artboard_2-minor-paint-img polygon { vector-effect: non-scaling-stroke; }
</style>
</svg>
