<?xml version="1.0" encoding="UTF-8"?>
<svg id="g-circles-scroll-Artboard_3-minor-unsanitary-img" xmlns="http://www.w3.org/2000/svg" baseProfile="tiny" version="1.2" viewBox="0 0 300 383.152">
  <!-- Generator: Adobe Illustrator 29.1.0, SVG Export Plug-In . SVG Version: 2.1.0 Build 142)  -->
  <path id="p_864.689992681845" d="M201.939,244.527c-26.194,0-47.429-21.235-47.429-47.429s21.235-47.429,47.429-47.429,47.429,21.235,47.429,47.429-21.235,47.429-47.429,47.429Z" fill="none" stroke="#cbcbcb"/>
  <path id="p_790.0010928730143" d="M184.072,225.677c-15.784.001-28.58-12.793-28.581-28.576-.001-15.784,12.793-28.58,28.576-28.581h.005c15.784-.001,28.58,12.793,28.581,28.576.001,15.784-12.793,28.58-28.576,28.581h-.005Z" fill="#b68b70"/>
  <path id="p_862.8101027583865" d="M230.95,214.56c-9.644,0-17.462-7.818-17.462-17.462s7.818-17.462,17.462-17.462,17.462,7.818,17.462,17.462-7.818,17.462-17.462,17.462Z" fill="#b68b70"/>
  <path id="p_854.4458153020211" d="M198.476,240.03c-4.464,0-8.083-3.619-8.083-8.083s3.619-8.083,8.083-8.083,8.083,3.619,8.083,8.083-3.619,8.083-8.083,8.083Z" fill="#b68b70"/>
  <path id="p_770.6278146212809" d="M213.957,177.745c-2.577,0-4.667-2.089-4.668-4.666,0-2.577,2.089-4.667,4.666-4.668h.001c2.577,0,4.667,2.089,4.668,4.666,0,2.577-2.089,4.667-4.666,4.668h-.001Z" fill="#b68b70"/>
<style>
#g-circles-scroll-Artboard_3-minor-unsanitary-img rect, #g-circles-scroll-Artboard_3-minor-unsanitary-img circle, #g-circles-scroll-Artboard_3-minor-unsanitary-img path, #g-circles-scroll-Artboard_3-minor-unsanitary-img line, #g-circles-scroll-Artboard_3-minor-unsanitary-img polyline, #g-circles-scroll-Artboard_3-minor-unsanitary-img polygon { vector-effect: non-scaling-stroke; }
</style>
</svg>
