<?xml version="1.0" encoding="UTF-8"?>
<svg id="g-circles-scroll-Artboard_3-minor-plumbing-img" xmlns="http://www.w3.org/2000/svg" baseProfile="tiny" version="1.2" viewBox="0 0 300 383.152">
  <!-- Generator: Adobe Illustrator 29.1.0, SVG Export Plug-In . SVG Version: 2.1.0 Build 142)  -->
  <path id="p_905.3145150029063" d="M154.958,314.596c-22.823.001-41.326-18.499-41.327-41.322-.001-22.823,18.499-41.326,41.322-41.327h.005c22.823-.001,41.326,18.499,41.327,41.322.001,22.823-18.499,41.326-41.322,41.327h-.005Z" fill="none" stroke="#cbcbcb"/>
  <path id="p_833.5479362330682" d="M142.402,290.058c-9.34,0-16.912-7.572-16.912-16.912s7.572-16.912,16.912-16.912,16.912,7.572,16.912,16.912-7.572,16.912-16.912,16.912Z" fill="#9eb2d4"/>
  <path id="p_890.6953511714536" d="M174.631,287.379c-7.861,0-14.234-6.373-14.234-14.234s6.373-14.234,14.234-14.234,14.234,6.373,14.234,14.234-6.373,14.234-14.234,14.234Z" fill="#9eb2d4"/>
  <path id="p_907.4395702682375" d="M161.587,310.055c-6.874,0-12.447-5.573-12.447-12.447s5.573-12.447,12.447-12.447,12.447,5.573,12.447,12.447-5.573,12.447-12.447,12.447Z" fill="#9eb2d4"/>
  <path id="p_814.1659048641333" d="M160.964,261.64c-6.605,0-11.959-5.354-11.959-11.959s5.354-11.959,11.959-11.959,11.959,5.354,11.959,11.959-5.354,11.959-11.959,11.959Z" fill="#9eb2d4"/>
  <path id="p_759.8634284212169" d="M139.497,255.777c-5.044,0-9.134-4.089-9.134-9.134s4.089-9.134,9.134-9.134,9.134,4.089,9.134,9.134-4.089,9.134-9.134,9.134Z" fill="#9eb2d4"/>
  <path id="p_862.7391494016606" d="M138.705,308.879c-5.044,0-9.134-4.089-9.134-9.134s4.089-9.134,9.134-9.134,9.134,4.089,9.134,9.134-4.089,9.134-9.134,9.134Z" fill="#9eb2d4"/>
  <path id="p_846.880686316166" d="M180.721,258.916c-3.813,0-6.904-3.091-6.904-6.904s3.091-6.904,6.904-6.904,6.904,3.091,6.904,6.904-3.091,6.904-6.904,6.904Z" fill="#9eb2d4"/>
  <path id="p_910.1568227636502" d="M176.937,295.111c-1.907,0-3.452-1.546-3.452-3.452s1.546-3.452,3.452-3.452,3.452,1.546,3.452,3.452-1.546,3.452-3.452,3.452Z" fill="#9eb2d4"/>
<style>
#g-circles-scroll-Artboard_3-minor-plumbing-img rect, #g-circles-scroll-Artboard_3-minor-plumbing-img circle, #g-circles-scroll-Artboard_3-minor-plumbing-img path, #g-circles-scroll-Artboard_3-minor-plumbing-img line, #g-circles-scroll-Artboard_3-minor-plumbing-img polyline, #g-circles-scroll-Artboard_3-minor-plumbing-img polygon { vector-effect: non-scaling-stroke; }
</style>
</svg>
