<?xml version="1.0" encoding="UTF-8"?>
<svg id="g-circles-scroll-Artboard_3-top-three-img" xmlns="http://www.w3.org/2000/svg" baseProfile="tiny" version="1.2" viewBox="0 0 300 383.152">
  <!-- Generator: Adobe Illustrator 29.1.0, SVG Export Plug-In . SVG Version: 2.1.0 Build 142)  -->
  <g>
    <g id="PAINT_x2F_PLASTER">
      <path id="p_682.9685663296325" d="M104.76,245.825c-27.004,0-48.896-21.891-48.896-48.896s21.891-48.896,48.896-48.896,48.896,21.891,48.896,48.896-21.891,48.896-48.896,48.896Z" fill="#ff9ebf"/>
    </g>
    <text transform="translate(82.806 234.427)" display="none" font-family="Roboto-Bold, Roboto" font-size="24.558" font-weight="700"><tspan x="0" y="0">119</tspan></text>
    <text transform="translate(95.575 189.824)" display="none" font-family="Roboto-Regular, Roboto" font-size="6.785" isolation="isolate"><tspan x="0" y="0">Paint/</tspan><tspan x="-1.188" y="8.142">plaster</tspan></text>
  </g>
  <g>
    <g id="UNSANITARY_CONDITION">
      <path id="p_880.9479166042868" d="M201.825,244.153c-26.081,0-47.224-21.143-47.224-47.224s21.143-47.224,47.224-47.224,47.224,21.143,47.224,47.224-21.143,47.224-47.224,47.224Z" fill="#b68b70"/>
    </g>
    <text transform="translate(183.737 234.427)" display="none" font-family="Roboto-Bold, Roboto" font-size="23.747" font-weight="700" isolation="isolate"><tspan x="0" y="0">111</tspan></text>
    <text transform="translate(185.759 191.399)" display="none" font-family="Roboto-Regular, Roboto" font-size="6.785" isolation="isolate"><tspan x="0" y="0">Unsanitary</tspan><tspan x="2.011" y="8.142">condition</tspan></text>
  </g>
  <g>
    <g id="PLUMBING">
      <path id="p_929.3000891367416" d="M154.849,314.427c-22.823.004-41.328-18.494-41.331-41.317-.004-22.823,18.494-41.328,41.317-41.331h.014c22.823-.004,41.328,18.494,41.331,41.317.004,22.823-18.494,41.328-41.317,41.331h-.014Z" fill="#9eb2d4"/>
    </g>
    <text transform="translate(141.983 305.18)" display="none" font-family="Roboto-Bold, Roboto" font-size="22.051" font-weight="700" isolation="isolate"><tspan x="0" y="0">85</tspan></text>
    <text transform="translate(140.056 267.306)" display="none" font-family="Roboto-Regular, Roboto" font-size="6.785" isolation="isolate"><tspan x="0" y="0">Plumbing</tspan></text>
  </g>
<style>
#g-circles-scroll-Artboard_3-top-three-img rect, #g-circles-scroll-Artboard_3-top-three-img circle, #g-circles-scroll-Artboard_3-top-three-img path, #g-circles-scroll-Artboard_3-top-three-img line, #g-circles-scroll-Artboard_3-top-three-img polyline, #g-circles-scroll-Artboard_3-top-three-img polygon { vector-effect: non-scaling-stroke; }
</style>
</svg>
