<?xml version="1.0" encoding="UTF-8"?>
<svg id="g-circles-scroll-Artboard_1-minor-paint-img" xmlns="http://www.w3.org/2000/svg" baseProfile="tiny" version="1.2" viewBox="0 0 1200 1200">
  <!-- Generator: Adobe Illustrator 29.1.0, SVG Export Plug-In . SVG Version: 2.1.0 Build 142)  -->
  <path id="p_670.1562911682141" d="M466.781,759.748c-79.533,0-144.008-64.475-144.008-144.008s64.475-144.008,144.008-144.008,144.008,64.475,144.008,144.008-64.475,144.008-144.008,144.008Z" fill="none" stroke="#cbcbcb"/>
  <path id="p_571.6134878774152" d="M399.196,689.535c-40.756.005-73.799-33.03-73.805-73.785-.005-40.756,33.03-73.799,73.785-73.805h.019c40.756-.005,73.799,33.03,73.805,73.785.005,40.756-33.03,73.799-73.785,73.805h-.019Z" fill="#ff9ebf"/>
  <path id="p_668.2764012447556" d="M541.89,682.009c-36.6.008-66.276-29.656-66.284-66.256-.008-36.6,29.656-66.276,66.256-66.284h.028c36.6-.008,66.276,29.656,66.284,66.256.008,36.6-29.656,66.276-66.256,66.284h-.028Z" fill="#ff9ebf"/>
  <path id="p_622.6913922474281" d="M473.455,701.676c-8.965,0-16.233-7.268-16.233-16.233s7.268-16.233,16.233-16.233,16.233,7.268,16.233,16.233-7.268,16.233-16.233,16.233Z" fill="#ff9ebf"/>
  <path id="p_548.3992201048823" d="M477.658,573.246c-7.32.001-13.255-5.932-13.256-13.252-.001-7.32,5.932-13.255,13.252-13.256h.004c7.32-.001,13.255,5.932,13.256,13.252.001,7.32-5.932,13.255-13.252,13.256h-.004Z" fill="#ff9ebf"/>
  <g id="WINDOW_x2F_FRAME">
    <path id="p_518.985133279655" d="M447.467,548.887c-7.32.001-13.255-5.932-13.256-13.252-.001-7.32,5.932-13.255,13.252-13.256h.004c7.32-.001,13.255,5.932,13.256,13.252.001,7.32-5.932,13.255-13.252,13.256h-.004Z" fill="#ff9ebf"/>
  </g>
<style>
#g-circles-scroll-Artboard_1-minor-paint-img rect, #g-circles-scroll-Artboard_1-minor-paint-img circle, #g-circles-scroll-Artboard_1-minor-paint-img path, #g-circles-scroll-Artboard_1-minor-paint-img line, #g-circles-scroll-Artboard_1-minor-paint-img polyline, #g-circles-scroll-Artboard_1-minor-paint-img polygon { vector-effect: non-scaling-stroke; }
</style>
</svg>
