<?xml version="1.0" encoding="UTF-8"?>
<svg id="g-circles-scroll-Artboard_3-minor-paint-img" xmlns="http://www.w3.org/2000/svg" baseProfile="tiny" version="1.2" viewBox="0 0 300 383.152">
  <!-- Generator: Adobe Illustrator 29.1.0, SVG Export Plug-In . SVG Version: 2.1.0 Build 142)  -->
  <path id="p_670.1562911682141" d="M104.916,245.919c-26.981,0-48.854-21.873-48.854-48.854s21.873-48.854,48.854-48.854,48.854,21.873,48.854,48.854-21.873,48.854-48.854,48.854Z" fill="none" stroke="#cbcbcb"/>
  <path id="p_571.6134878774152" d="M81.989,222.1c-13.826.002-25.036-11.205-25.038-25.031-.002-13.826,11.205-25.036,25.031-25.038h.007c13.826-.002,25.036,11.205,25.038,25.031.002,13.826-11.205,25.036-25.031,25.038h-.007Z" fill="#ff9ebf"/>
  <path id="p_668.2764012447556" d="M130.396,219.547c-12.416.003-22.484-10.061-22.486-22.477-.003-12.416,10.061-22.484,22.477-22.486h.01c12.416-.003,22.484,10.061,22.486,22.477.003,12.416-10.061,22.484-22.477,22.486h-.01Z" fill="#ff9ebf"/>
  <path id="p_622.6913922474281" d="M107.18,226.219c-3.041,0-5.507-2.465-5.507-5.507s2.465-5.507,5.507-5.507,5.507,2.465,5.507,5.507-2.465,5.507-5.507,5.507Z" fill="#ff9ebf"/>
  <path id="p_548.3992201048823" d="M108.606,182.65c-2.483,0-4.497-2.012-4.497-4.496,0-2.483,2.012-4.497,4.496-4.497h.001c2.483,0,4.497,2.012,4.497,4.496,0,2.483-2.012,4.497-4.496,4.497h-.001Z" fill="#ff9ebf"/>
  <g id="WINDOW_x2F_FRAME">
    <path id="p_518.985133279655" d="M98.364,174.386c-2.483,0-4.497-2.012-4.497-4.496,0-2.483,2.012-4.497,4.496-4.497h.001c2.483,0,4.497,2.012,4.497,4.496,0,2.483-2.012,4.497-4.496,4.497h-.001Z" fill="#ff9ebf"/>
  </g>
<style>
#g-circles-scroll-Artboard_3-minor-paint-img rect, #g-circles-scroll-Artboard_3-minor-paint-img circle, #g-circles-scroll-Artboard_3-minor-paint-img path, #g-circles-scroll-Artboard_3-minor-paint-img line, #g-circles-scroll-Artboard_3-minor-paint-img polyline, #g-circles-scroll-Artboard_3-minor-paint-img polygon { vector-effect: non-scaling-stroke; }
</style>
</svg>
